<svg width="24" height="28" viewBox="0 0 24 28" fill="none" xmlns="http://www.w3.org/2000/svg">
<path d="M15.4303 5.14172C15.4303 7.99202 13.2155 10.2834 10.4605 10.2834C7.70552 10.2834 5.49072 7.99202 5.49072 5.14172C5.49072 2.29142 7.70552 0 10.4605 0C13.1615 0 15.4303 2.29142 15.4303 5.14172Z" fill="#079DD9"/>
<path d="M6.40912 10.0599C6.3551 10.0599 6.3551 10.1158 6.3551 10.1158V14.0839C6.3551 14.3633 6.51716 14.5869 6.84127 14.5869H8.46185C8.56989 14.5869 8.62391 14.5869 8.67793 14.6428C8.73195 14.6986 8.67793 14.8104 8.73195 14.8663V27.2735C8.73195 27.5529 8.89401 27.7765 9.21812 27.7765H14.0258C14.2959 27.7765 14.512 27.6088 14.512 27.2735V10.1158C14.512 10.0599 14.458 10.004 14.458 10.004C14.35 10.004 14.2959 10.0599 14.2959 10.0599C13.4856 10.8424 12.1892 11.5689 10.4606 11.5689C8.78597 11.5689 7.65156 10.9541 6.51716 10.004C6.51716 10.0599 6.46314 10.004 6.40912 10.0599Z" fill="#079DD9"/>
</svg>
