<svg width="10" height="28" viewBox="0 0 10 28" fill="none" xmlns="http://www.w3.org/2000/svg">
<path d="M9.93955 5.14172C9.93955 7.99202 7.72476 10.2834 4.96978 10.2834C2.21479 10.2834 0 7.99202 0 5.14172C0 2.29142 2.21479 0 4.96978 0C7.67074 0 9.93955 2.29142 9.93955 5.14172Z" fill="white"/>
<path d="M0.918398 10.0599C0.864379 10.0599 0.86438 10.1158 0.86438 10.1158V14.0839C0.86438 14.3633 1.02643 14.5869 1.35055 14.5869H2.97113C3.07917 14.5869 3.13319 14.5869 3.18721 14.6428C3.24123 14.6986 3.18721 14.8104 3.24123 14.8663V27.2735C3.24123 27.5529 3.40328 27.7765 3.7274 27.7765H8.53512C8.80521 27.7765 9.02129 27.6088 9.02129 27.2735V10.1158C9.02129 10.0599 8.96727 10.004 8.96727 10.004C8.85923 10.004 8.80521 10.0599 8.80521 10.0599C7.99492 10.8424 6.69846 11.5689 4.96985 11.5689C3.29525 11.5689 2.16084 10.9541 1.02644 10.004C1.02644 10.0599 0.972418 10.004 0.918398 10.0599Z" fill="white"/>
</svg>
