<svg xmlns="http://www.w3.org/2000/svg" xmlns:xlink="http://www.w3.org/1999/xlink" viewBox="0 0 50.23 30.94"><defs><style>.cls-1{clip-path:url(#clip-path);}.cls-2{fill:none;}.cls-3{isolation:isolate;}.cls-4{clip-path:url(#clip-path-2);}.cls-5{clip-path:url(#clip-path-3);}.cls-6{fill:url(#radial-gradient);}.cls-7{fill:url(#linear-gradient);}.cls-8{fill:#a8a5a4;}.cls-9{clip-path:url(#clip-path-4);}.cls-10{fill:url(#linear-gradient-2);}.cls-11{clip-path:url(#clip-path-5);}.cls-12{fill:url(#linear-gradient-3);}.cls-13{clip-path:url(#clip-path-6);}.cls-14{fill:url(#linear-gradient-4);}.cls-15{clip-path:url(#clip-path-7);}.cls-16{fill:url(#linear-gradient-5);}.cls-17{mask:url(#mask);}.cls-18{mix-blend-mode:soft-light;}.cls-19{clip-path:url(#clip-path-8);}.cls-20{clip-path:url(#clip-path-9);}.cls-21{mask:url(#mask-2);}.cls-22{fill:url(#linear-gradient-6);}.cls-23{fill:#3183c5;}</style><clipPath id="clip-path"><rect class="cls-2" x="31.13" y="26.16" width="4.65" height="16.73"/></clipPath><clipPath id="clip-path-2"><rect class="cls-2" x="30.97" y="26.16" width="5.14" height="16.73"/></clipPath><clipPath id="clip-path-3"><path class="cls-2" d="M43.42,33.51A7.69,7.69,0,1,1,35.73,26a7.61,7.61,0,0,1,7.69,7.51"/></clipPath><radialGradient id="radial-gradient" cx="-239.51" cy="450.2" r="0.28" gradientTransform="matrix(27.4, 0, 0, -27.4, 6597.67, 12367.87)" gradientUnits="userSpaceOnUse"><stop offset="0" stop-color="#fff"/><stop offset="0.99" stop-color="#12100b"/><stop offset="1" stop-color="#12100b"/></radialGradient><linearGradient id="linear-gradient" x1="-231.44" y1="475.37" x2="-231.16" y2="475.37" gradientTransform="matrix(0, 10.35, 10.35, 0, -4887.25, 2429.58)" gradientUnits="userSpaceOnUse"><stop offset="0"/><stop offset="0.23"/><stop offset="1" stop-color="gray"/></linearGradient><clipPath id="clip-path-4" transform="translate(-26.85 -24.89)"><path class="cls-2" d="M38,48.5a7.59,7.59,0,0,0,1.43,0c1-.07,1.92-.13,2.56.71l.63-.28A5.9,5.9,0,0,0,38.4,43.7c-2.15-.54-5.41.14-7.18-2.88.7,3.26,3.2,7.25,6.8,7.68"/></clipPath><linearGradient id="linear-gradient-2" x1="-242.5" y1="447.02" x2="-242.22" y2="447.02" gradientTransform="matrix(41.17, 0, 0, -41.17, 9987.29, 18422.42)" gradientUnits="userSpaceOnUse"><stop offset="0" stop-color="#2d9491"/><stop offset="0.17" stop-color="#2d9491"/><stop offset="1" stop-color="#a5c423"/></linearGradient><clipPath id="clip-path-5" transform="translate(-26.85 -24.89)"><path class="cls-2" d="M38,48.5a7.59,7.59,0,0,0,1.43,0c1-.07,1.92-.13,2.56.71l.63-.28c-.48-1.1-1-1.63-4-1.93a9.84,9.84,0,0,1-5.87-2.28A7.51,7.51,0,0,0,38,48.5"/></clipPath><linearGradient id="linear-gradient-3" x1="-241.51" y1="448.55" x2="-241.23" y2="448.55" gradientTransform="matrix(35.39, 0, 0, -35.39, 8551.67, 15894.06)" gradientUnits="userSpaceOnUse"><stop offset="0" stop-color="#2d9491"/><stop offset="1" stop-color="#579e43"/></linearGradient><clipPath id="clip-path-6" transform="translate(-26.85 -24.89)"><path class="cls-2" d="M34.05,26.16l-.77,1c1.61,2.63.93,4.63-.63,7a9.57,9.57,0,0,0-1.43,6.68c1.51,2.59,4.13,2.46,6.2,2.71h0c1.68-2.87,4.81-11.31-3.37-17.37Z"/></clipPath><linearGradient id="linear-gradient-4" x1="-254.27" y1="442.97" x2="-253.99" y2="442.97" gradientTransform="matrix(0, 60.82, 60.82, 0, -26932.32, 15466.16)" gradientUnits="userSpaceOnUse"><stop offset="0" stop-color="#9fc9ed"/><stop offset="0.27" stop-color="#9fc9ed"/><stop offset="0.43" stop-color="#84a2cf"/><stop offset="0.88" stop-color="#38347d"/><stop offset="1" stop-color="#38347d"/></linearGradient><clipPath id="clip-path-7" transform="translate(-26.85 -24.89)"><path class="cls-2" d="M34.05,26.16c.72.76,1.09,2.62,0,4.92h0a9.28,9.28,0,0,1-1.44,3.06,9.57,9.57,0,0,0-1.43,6.68,4.66,4.66,0,0,0,2.4,2.07c-.79-3-.42-4.5,1.22-8a10.2,10.2,0,0,0,.27-7.9c-.33-.29-.68-.57-1.06-.85Z"/></clipPath><linearGradient id="linear-gradient-5" x1="-243.21" y1="433.65" x2="-242.94" y2="433.65" gradientTransform="matrix(0, -56.39, -56.39, 0, 24458.66, -13696.14)" gradientUnits="userSpaceOnUse"><stop offset="0" stop-color="#342871"/><stop offset="0.76" stop-color="#91b9e4"/><stop offset="1" stop-color="#91b9e4"/></linearGradient><mask id="mask" x="1.18" y="1.1" width="15.38" height="16.89" maskUnits="userSpaceOnUse"><g transform="translate(-26.85 -24.89)"><g class="cls-1"><rect x="30.97" y="26.16" width="5.14" height="16.73"/><g class="cls-3"><g class="cls-4"><g class="cls-5"><rect class="cls-6" x="28.04" y="26" width="15.38" height="15.03"/></g></g></g></g></g></mask><clipPath id="clip-path-8" transform="translate(-26.85 -24.89)"><rect class="cls-2" x="31.13" y="26.16" width="4.65" height="16.73"/></clipPath><clipPath id="clip-path-9" transform="translate(-26.85 -24.89)"><path class="cls-2" d="M34.05,26.16c.72.76,1.09,2.62,0,4.92h0a9.28,9.28,0,0,1-1.44,3.06,9.57,9.57,0,0,0-1.43,6.68,4.66,4.66,0,0,0,2.4,2.07c-.79-3-.42-4.5,1.22-8a10.2,10.2,0,0,0,.27-7.9c-.33-.29-.68-.57-1.06-.85"/></clipPath><mask id="mask-2" x="0" y="0" width="13.37" height="19.26" maskUnits="userSpaceOnUse"><g transform="translate(-26.85 -24.89)"><rect class="cls-7" x="24.79" y="29.91" width="17.49" height="9.22" transform="translate(-8.38 58.18) rotate(-75.27)"/></g></mask><linearGradient id="linear-gradient-6" x1="-231.44" y1="475.37" x2="-231.16" y2="475.37" gradientTransform="matrix(0, 10.35, 10.35, 0, -4887.25, 2429.58)" gradientUnits="userSpaceOnUse"><stop offset="0" stop-color="#12100b"/><stop offset="0.23" stop-color="#12100b"/><stop offset="1" stop-color="#12100b"/></linearGradient></defs><g class="cls-3"><g id="color"><path class="cls-8" d="M39,55.84c-.75,0-1.34-.33-1.34-1.45V53.8c0-1.18.68-1.43,1.34-1.43a6.46,6.46,0,0,1,1,.08v.33l-.93,0c-.57,0-1,.14-1,1.06v.59c0,.86.35,1.07,1,1.07h.52V54H40v1.71A5,5,0,0,1,39,55.84Z" transform="translate(-26.85 -24.89)"/><path class="cls-8" d="M42,55.78v-.17a1.42,1.42,0,0,1-.79.23c-.46,0-.74-.21-.74-.71V55c0-.65.45-.76,1.14-.76H42v-.19c0-.42-.08-.52-.58-.52a5,5,0,0,0-.77.06v-.29a2.87,2.87,0,0,1,.8-.11c.83,0,1,.3,1,.86v1.69Zm0-1.2h-.37c-.52,0-.73.07-.73.46v.13c0,.28.17.35.41.35a1.38,1.38,0,0,0,.69-.2Z" transform="translate(-26.85 -24.89)"/><path class="cls-8" d="M43.8,55.84a3.42,3.42,0,0,1-.81-.1v-.31c.15,0,.5.06.8.06s.53-.12.53-.33-.07-.29-.5-.47l-.18-.08c-.48-.2-.68-.41-.68-.76s.28-.62.9-.62a3.09,3.09,0,0,1,.75.09v.3a7.06,7.06,0,0,0-.73,0c-.37,0-.51,0-.51.27s.08.27.43.43l.18.07c.58.26.75.41.75.8S44.54,55.84,43.8,55.84Z" transform="translate(-26.85 -24.89)"/><path class="cls-8" d="M45.56,54.68v0c0,.43.07.76.75.76a5.85,5.85,0,0,0,.87-.08v.33a3.8,3.8,0,0,1-.89.1c-.88,0-1.13-.39-1.13-1.2v-.19c0-.78.34-1.22,1.05-1.22s1.06.44,1.06,1.27v.18Zm1.29-.38c0-.3-.06-.72-.64-.72s-.64.42-.64.72v.05h1.28Z" transform="translate(-26.85 -24.89)"/><path class="cls-8" d="M48.59,55.84a3.34,3.34,0,0,1-.81-.1v-.31c.15,0,.5.06.8.06s.53-.12.53-.33-.08-.29-.5-.47l-.18-.08c-.48-.2-.68-.41-.68-.76s.27-.62.89-.62a3,3,0,0,1,.75.09v.3a7.06,7.06,0,0,0-.73,0c-.36,0-.51,0-.51.27s.08.27.44.43l.18.07c.57.26.75.41.75.8S49.33,55.84,48.59,55.84Z" transform="translate(-26.85 -24.89)"/><path class="cls-8" d="M52.42,55.78v-.13a1.32,1.32,0,0,1-.69.19c-.58,0-.93-.33-.93-1.06v-.43c0-.89.45-1.12,1-1.12a2.86,2.86,0,0,1,.58.06v-1h.41v3.5Zm0-2.15a3.15,3.15,0,0,0-.55-.06c-.41,0-.65.11-.65.78v.43c0,.49.18.71.6.71a1.33,1.33,0,0,0,.6-.15Z" transform="translate(-26.85 -24.89)"/><path class="cls-8" d="M53.82,54.68v0c0,.43.06.76.75.76a5.71,5.71,0,0,0,.86-.08v.33a3.77,3.77,0,0,1-.88.1c-.88,0-1.14-.39-1.14-1.2v-.19c0-.78.35-1.22,1.05-1.22s1.07.44,1.07,1.27v.18Zm1.29-.38c0-.3-.06-.72-.64-.72s-.65.42-.65.72v.05h1.29Z" transform="translate(-26.85 -24.89)"/><path class="cls-8" d="M58.18,55.84c-.84,0-1.3-.54-1.3-1.5v-.48c0-1,.46-1.49,1.3-1.49s1.3.53,1.3,1.49v.48C59.48,55.3,59,55.84,58.18,55.84Zm.88-2c0-.82-.36-1.12-.88-1.12s-.88.3-.88,1.12v.48c0,.82.37,1.13.88,1.13s.88-.31.88-1.13Z" transform="translate(-26.85 -24.89)"/><path class="cls-8" d="M61,55.84c-.67,0-1-.41-1-1.12v-.38c0-.71.32-1.11,1-1.11a3.05,3.05,0,0,1,.71.08v.31c-.3,0-.52,0-.65,0-.4,0-.64.14-.64.76v.38c0,.62.24.77.64.77.13,0,.35,0,.65,0v.3A2.43,2.43,0,0,1,61,55.84Z" transform="translate(-26.85 -24.89)"/><path class="cls-8" d="M63.05,55.84c-.68,0-1-.41-1-1.12v-.38c0-.71.31-1.11,1-1.11a3.14,3.14,0,0,1,.71.08v.31c-.3,0-.52,0-.65,0-.4,0-.64.14-.64.76v.38c0,.62.24.77.64.77.13,0,.35,0,.65,0v.3A2.49,2.49,0,0,1,63.05,55.84Z" transform="translate(-26.85 -24.89)"/><path class="cls-8" d="M64.34,52.83v-.55h.41v.55Zm0,3V53.29h.4v2.49Z" transform="translate(-26.85 -24.89)"/><path class="cls-8" d="M67,55.78v-.13a1.38,1.38,0,0,1-.7.19c-.58,0-.93-.33-.93-1.06v-.43c0-.89.45-1.12,1-1.12a2.86,2.86,0,0,1,.58.06v-1h.41v3.5Zm0-2.15a3.15,3.15,0,0,0-.55-.06c-.41,0-.65.11-.65.78v.43c0,.49.18.71.6.71a1.33,1.33,0,0,0,.6-.15Z" transform="translate(-26.85 -24.89)"/><path class="cls-8" d="M68.38,54.68v0c0,.43.06.76.75.76a5.71,5.71,0,0,0,.86-.08v.33a3.77,3.77,0,0,1-.88.1c-.88,0-1.14-.39-1.14-1.2v-.19c0-.78.35-1.22,1-1.22s1.07.44,1.07,1.27v.18Zm1.29-.38c0-.3-.06-.72-.64-.72s-.65.42-.65.72v.05h1.29Z" transform="translate(-26.85 -24.89)"/><path class="cls-8" d="M72.28,55.78V54.19c0-.45-.07-.61-.41-.61a1.94,1.94,0,0,0-.78.22v2h-.41V53.29h.41v.2a1.78,1.78,0,0,1,.82-.26c.66,0,.78.35.78,1v1.59Z" transform="translate(-26.85 -24.89)"/><path class="cls-8" d="M74.17,55.84c-.45,0-.62-.16-.62-.63V53.63l-.5,0v-.3h.5v-.64H74v.64h.66v.34H74v1.56c0,.28,0,.32.25.32l.41,0v.28A1.75,1.75,0,0,1,74.17,55.84Z" transform="translate(-26.85 -24.89)"/><path class="cls-8" d="M75.34,54.68v0c0,.43.07.76.75.76a5.85,5.85,0,0,0,.87-.08v.33a3.8,3.8,0,0,1-.89.1c-.88,0-1.13-.39-1.13-1.2v-.19c0-.78.34-1.22,1-1.22s1.06.44,1.06,1.27v.18Zm1.29-.38c0-.3-.06-.72-.64-.72s-.64.42-.64.72v.05h1.28Z" transform="translate(-26.85 -24.89)"/><g class="cls-9"><rect class="cls-10" x="4.37" y="15.93" width="11.43" height="8.38"/></g><g class="cls-11"><rect class="cls-12" x="5.97" y="19.82" width="9.82" height="4.49"/></g><g class="cls-13"><rect class="cls-14" x="4.11" y="1.26" width="11.26" height="17.37"/></g><g class="cls-15"><rect class="cls-16" x="4.11" y="1.26" width="5.14" height="16.73"/></g><g class="cls-17"><g class="cls-18"><g class="cls-19"><g class="cls-20"><g class="cls-21"><rect class="cls-22" x="24.79" y="29.91" width="17.49" height="9.22" transform="translate(-35.23 33.29) rotate(-75.27)"/></g></g></g></g></g><path class="cls-23" d="M53.58,45A9.5,9.5,0,0,1,49,46.14c-3.8,0-6.61-1.84-6.61-6.54,0-4.05,2.29-6.79,6.48-6.79a6.2,6.2,0,0,1,4.75,2.09l-1.23.85a5,5,0,0,0-3.7-1.62c-3.55,0-4.53,2.86-4.53,5.36,0,4.64,2.76,5.36,4.81,5.36a6.38,6.38,0,0,0,2.86-.65V40.38H48.51V39.06h5.07ZM60.42,36a8,8,0,0,1,2,.31V32.46H64V44.1s.07,1.38.14,1.82H62.84l-.22-1.26a3.51,3.51,0,0,1-2.89,1.51c-2.26,0-3.78-1.49-3.78-4.79C56,37.54,58.12,36,60.42,36m-.51,9a2.38,2.38,0,0,0,2.56-1.83v-5.5a4.06,4.06,0,0,0-1.94-.47c-1.45,0-3.08.57-3.08,4.17,0,2.47.88,3.63,2.46,3.63m6.53-5.35c0-4.9,2.47-6.84,5.53-6.84,2.18,0,5.11,1.28,5.11,6.84,0,3.91-1.86,6.47-5.25,6.47-3.59,0-5.39-2.41-5.39-6.47m9.1,0c0-3.49-1.4-5.54-3.57-5.54s-4,1.48-4,5.54c0,3,1,5.18,4,5.18,2.27,0,3.57-2.14,3.57-5.18" transform="translate(-26.85 -24.89)"/></g></g></svg>